<svg width="190" height="38" fill="none" xmlns="http://www.w3.org/2000/svg"><g clip-path="url(#a)"><path d="M6.07 20.72v-2.26a143.265 143.265 0 0 1 20.17-1.33c0 .6 0 1.21-.06 1.82a25.518 25.518 0 0 1 6-1.82A16.67 16.67 0 0 0 .19 20.39l5.88.33ZM27.24 24.23c-1.16 1.28-1.39 1.2-1.39 3.45v9.18A16.64 16.64 0 0 0 33.32 23a17.302 17.302 0 0 0-.32-3.1 33.109 33.109 0 0 0-5.76 4.33ZM6.36 25.72s-3.79-1.44-5.19-1.83A8.541 8.541 0 0 0 0 23.61a16.65 16.65 0 0 0 8.68 14L6.36 25.72Z" fill="#FDC305"/><path d="M26.29 17.12A89.799 89.799 0 0 0 24.89.65S24.75-.64 24 .41a14.22 14.22 0 0 0-1.2 3.94 70.34 70.34 0 0 0-12.77.34C9.24 2 7.85.75 7.18 1c-.67.25-.72 3.31-.72 3.31l-.33 14.1a143.211 143.211 0 0 1 20.16-1.29Z" fill="#F06351"/><path d="M12.41 14c0-.09 1 .68 1.41.92.41.24.61.42.61.59 0 .17-.27.34-.63.34s-.91-.12-1-.27h1.23A8.34 8.34 0 0 1 12.41 14ZM19.89 14.11l-1.09 1.33c0 .06-.17.35.18.3a7.351 7.351 0 0 0 1.22-.29c.11 0 .07-.19-.11-.17-.18.02-.69.05-1 .11l.84-1.26s.07-.13-.04-.02ZM16.75 20.2a2.3 2.3 0 0 0 1.09-1c.28-.65 0-.91-.44-1a2.43 2.43 0 0 0-1.74.34c-.39.36-.34.72-.05 1a5.34 5.34 0 0 0 1.14.66Z" fill="#000"/><path d="M16.35 21.45a1.92 1.92 0 0 1-.46.6 1.73 1.73 0 0 1-1 .38 2.15 2.15 0 0 1-1.47-.43 2.3 2.3 0 0 1-.53-.44c-.1-.11-.223-.2-.36-.26 0 0 .75 4.1 2.57 4.75 1.82.65 2.14-.75 2.2-1.13a5.61 5.61 0 0 0-.82-3.23c-.02-.31-.03-.11-.13-.24Z" fill="#F06351"/><path d="M14.71 22.59a3.44 3.44 0 0 1-2.361-1.466.14.14 0 0 1 .031-.154.14.14 0 0 1 .2 0 3.26 3.26 0 0 0 2.11 1.3 2.09 2.09 0 0 0 1.63-1l.14-.19.1.21s.37.76 1 .8c.63.04 1.05-.41 1.61-1.28a.14.14 0 0 1 .2 0 .15.15 0 0 1 .05.2c-.64 1-1.27 1.44-1.88 1.4a1.549 1.549 0 0 1-1.12-.76 2.26 2.26 0 0 1-1.71.94Z" fill="#000"/><path d="M26.24 18.92a58.634 58.634 0 0 0-5.07 5.19A31.633 31.633 0 0 1 15.88 29c-.22-.53-1.62-1.51-1.62-1.51s-3.13-2.14-5.18-3.82a34.139 34.139 0 0 1-3.13-3l-2-.11a22.57 22.57 0 0 0 12 8.8c.86-.14 3.27-1.86 5.07-3.26a58.13 58.13 0 0 0 5.94-5.89 6.15 6.15 0 0 0 1.14-2c-1.1.39-1.86.71-1.86.71Z" fill="#F06351"/></g><g clip-path="url(#b)" fill="#111"><path d="M90.264 30.36A6.906 6.906 0 0 1 89 26.036V19.63a6.991 6.991 0 0 1 1.186-4.4c.869-1.003 2.212-1.466 4.188-1.466 1.976 0 3.24.463 4.03 1.312a5.453 5.453 0 0 1 1.186 3.782v1.544h-3.873v-1.775a3.715 3.715 0 0 0-.237-1.544c-.1-.2-.259-.364-.456-.474a1.16 1.16 0 0 0-.65-.144c-.553 0-.948.155-1.106.54a4.878 4.878 0 0 0-.237 1.699v8.259a3.132 3.132 0 0 0 .316 1.62c.158.387.553.541 1.106.541s.87-.154 1.027-.54a4.41 4.41 0 0 0 .237-1.621V25.11h3.873v1.544a5.808 5.808 0 0 1-1.186 3.86c-.79.926-2.133 1.389-4.03 1.389-1.897-.077-3.32-.54-4.11-1.544ZM104.253 13.996h4.504l3.32 17.599h-3.636l-.632-3.705h-2.608l-.632 3.704h-3.715l3.399-17.598Zm3.24 11.578-.948-6.87-.949 6.87h1.897ZM114.843 16.929h-2.687v-2.933h9.404v2.856h-2.687v14.742h-4.03V16.93ZM128.752 13.996h6.955v1.852h-4.505v5.79h3.635v1.775h-3.635v6.483h4.505v1.776h-7.034V13.996h.079ZM137.761 13.996h1.739l5.137 11.655V13.996h2.055v17.599h-1.581l-5.216-12.042v12.041h-2.134V13.997ZM149.063 13.996h6.954v1.852h-4.504v5.79h3.635v1.775h-3.635v6.483h4.504v1.776h-6.954V13.996ZM158.072 13.996h3.635a6.436 6.436 0 0 1 4.031 1.08c.869.695 1.264 1.93 1.264 3.551 0 2.238-.711 3.628-2.212 4.09l2.528 8.8h-2.449l-2.371-8.259h-1.976v8.26h-2.529V13.995h.079Zm3.477 7.564a3.514 3.514 0 0 0 2.292-.617c.474-.386.711-1.158.711-2.316a4.871 4.871 0 0 0-.237-1.698 1.978 1.978 0 0 0-.869-.926 3.68 3.68 0 0 0-1.739-.31h-1.106v5.79h.948v.077ZM170.164 30.282a7.654 7.654 0 0 1-1.107-4.477v-5.867a12.35 12.35 0 0 1 .395-3.319 3.933 3.933 0 0 1 1.502-2.007c.882-.51 1.9-.752 2.924-.694 1.66 0 2.845.386 3.556 1.235a5.807 5.807 0 0 1 1.107 3.86v.617h-2.371v-.54c.003-.647-.05-1.293-.158-1.93a1.539 1.539 0 0 0-.633-1.004 2.485 2.485 0 0 0-1.501-.386 2.411 2.411 0 0 0-1.581.463 1.738 1.738 0 0 0-.632 1.235c-.104.69-.157 1.387-.158 2.084v6.561c-.058 1 .103 2 .474 2.934.316.617.949.849 1.897.849.374.045.754-.018 1.092-.183.337-.165.617-.424.805-.744a6.968 6.968 0 0 0 .553-3.087v-1.235h-2.292v-1.775h4.584v8.722h-1.581l-.237-2.007a3.154 3.154 0 0 1-1.226 1.664 3.279 3.279 0 0 1-2.014.574 4.036 4.036 0 0 1-1.899-.353 3.93 3.93 0 0 1-1.499-1.19ZM183.678 25.42l-3.873-11.347h2.371l2.766 8.49 2.687-8.49H190l-3.872 11.346v6.175h-2.371V25.42h-.079Z"/></g><defs><clipPath id="a"><path fill="#fff" d="M0 0h33.32v37.61H0z"/></clipPath><clipPath id="b"><path fill="#fff" transform="translate(89 13.764)" d="M0 0h101v18.062H0z"/></clipPath></defs></svg>